<svg width="538" height="553" viewBox="0 0 538 553" fill="none" xmlns="http://www.w3.org/2000/svg">
<path d="M419.907 103.1C455.245 141.084 460.322 210.652 453.302 274.807C446.579 338.971 427.759 397.721 390.118 436.025C352.466 474.645 295.685 493.124 239.812 491.437C183.64 489.741 128.067 468.185 95.494 427.761C63.229 387.031 54.2619 327.442 60.3902 273.042C66.5185 218.641 87.7422 169.429 122.619 133.566C157.206 97.378 205.138 74.8453 261.913 66.4626C318.978 58.4042 384.578 64.8021 419.907 103.1Z" fill="#F3AC46"/>
<path d="M175.933 58.9041C129.274 80.9653 100.085 142.818 84.2069 204.065C68.0442 265.213 65.1931 325.756 87.2691 374.351C109.243 423.238 156.328 460.568 209.63 479.113C263.216 497.758 323.202 498.008 368.109 472.719C412.832 447.038 442.191 395.718 455.49 343.72C468.789 291.722 466.027 239.046 445.703 193.68C425.767 148.12 388.452 110.261 337.831 82.1749C286.824 54.2812 222.695 36.5509 175.933 58.9041Z" fill="#FF727D"/>
</svg>
